<svg version="1.0" xmlns="http://www.w3.org/2000/svg"
 width="100.000000pt" height="100.000000pt" viewBox="0 0 100.000000 100.000000"
 preserveAspectRatio="xMidYMid meet">

<g transform="translate(0.000000,100.000000) scale(0.100000,-0.100000)"
fill="#000000" stroke="none">
<path d="M353 950 c-40 -9 -78 -33 -119 -74 -17 -17 -46 -40 -64 -51 -40 -24
-80 -96 -87 -158 -3 -26 1 -67 11 -99 14 -50 14 -60 1 -92 -8 -19 -15 -45 -15
-57 0 -35 31 -88 61 -106 27 -16 29 -21 24 -58 -9 -54 25 -105 79 -120 22 -6
47 -23 59 -39 37 -51 115 -70 170 -42 23 13 31 13 55 0 53 -27 136 -8 167 39
11 17 29 28 57 32 22 4 54 19 72 35 27 25 31 34 31 82 0 40 4 56 18 67 24 17
47 71 47 108 0 15 -8 41 -18 57 -17 28 -17 32 1 85 34 100 4 204 -75 261 -22
17 -45 30 -51 30 -5 0 -28 20 -51 44 -58 62 -154 85 -204 50 -20 -14 -24 -14
-44 0 -24 17 -71 19 -125 6z m117 -49 c5 -11 10 -74 10 -140 l0 -121 -30 0
c-29 0 -30 1 -30 50 l0 50 -40 0 c-27 0 -47 7 -60 20 -11 11 -29 20 -40 20
-26 0 -60 -34 -60 -60 0 -26 34 -60 60 -60 11 0 29 9 40 20 11 11 29 20 40 20
17 0 20 -7 20 -50 l0 -50 50 0 50 0 0 -80 0 -80 -70 0 -70 0 0 -60 c0 -47 -4
-64 -20 -80 -11 -11 -20 -29 -20 -40 0 -26 34 -60 60 -60 11 0 29 9 40 20 25
25 25 55 0 80 -13 13 -20 33 -20 60 l0 40 50 0 50 0 0 -144 c0 -118 -3 -147
-16 -160 -34 -34 -128 -8 -140 39 -5 19 -13 25 -34 25 -39 0 -90 44 -90 79 0
14 7 36 15 48 15 21 14 23 -18 37 -41 17 -77 60 -77 93 0 13 7 37 15 53 13 25
22 30 50 30 22 0 43 -8 55 -20 11 -11 29 -20 40 -20 26 0 60 34 60 60 0 26
-34 60 -60 60 -11 0 -29 -9 -40 -20 -13 -13 -33 -20 -59 -20 -35 0 -40 3 -50
31 -16 47 -13 109 8 154 21 46 73 95 102 95 10 0 19 6 19 13 0 58 183 117 210
68z m207 -6 c14 -10 30 -30 36 -45 7 -19 20 -30 38 -34 41 -8 104 -69 117
-114 17 -55 15 -84 -8 -149 -19 -55 -19 -56 0 -81 23 -28 26 -69 8 -107 -17
-37 -28 -31 -28 15 l0 40 -90 0 -90 0 0 30 c0 17 9 39 20 50 11 11 20 29 20
40 0 26 -34 60 -60 60 -11 0 -29 -9 -40 -20 -11 -11 -20 -29 -20 -40 0 -11 9
-29 20 -40 15 -15 20 -33 20 -70 l0 -50 90 0 90 0 0 -39 c0 -21 5 -52 11 -70
16 -47 4 -80 -36 -97 -19 -8 -48 -14 -64 -14 -22 0 -30 -5 -35 -25 -12 -47
-106 -73 -140 -39 -11 11 -16 35 -16 80 l0 64 40 0 c27 0 47 -7 60 -20 11 -11
29 -20 40 -20 26 0 60 34 60 60 0 26 -34 60 -60 60 -11 0 -29 -9 -40 -20 -13
-13 -33 -20 -60 -20 l-40 0 0 210 0 210 80 0 c67 0 83 -3 100 -20 11 -11 29
-20 40 -20 26 0 60 34 60 60 0 11 -9 29 -20 40 -11 11 -29 20 -40 20 -11 0
-29 -9 -40 -20 -17 -17 -33 -20 -100 -20 l-80 0 0 71 c0 101 9 113 77 106 30
-3 66 -13 80 -22z m-381 -166 c10 -17 -13 -36 -27 -22 -12 12 -4 33 11 33 5 0
12 -5 16 -11z m460 0 c10 -17 -13 -36 -27 -22 -12 12 -4 33 11 33 5 0 12 -5
16 -11z m-100 -180 c10 -17 -13 -36 -27 -22 -12 12 -4 33 11 33 5 0 12 -5 16
-11z m-360 -20 c10 -17 -13 -36 -27 -22 -12 12 -4 33 11 33 5 0 12 -5 16 -11z
m80 -260 c10 -17 -13 -36 -27 -22 -12 12 -4 33 11 33 5 0 12 -5 16 -11z m300
0 c10 -17 -13 -36 -27 -22 -12 12 -4 33 11 33 5 0 12 -5 16 -11z"/>
</g>
</svg>
