<svg fill="#101F39" height="800px" width="800px" version="1.1" id="Layer_1" xmlns="http://www.w3.org/2000/svg"
     viewBox="0 0 512 512" xml:space="preserve">

<g id="SVGRepo_bgCarrier" stroke-width="0"/>

    <g id="SVGRepo_tracerCarrier" stroke-linecap="round" stroke-linejoin="round"/>

    <g id="SVGRepo_iconCarrier"> <g> <g> <g> <path
            d="M21.333,21.333h213.333v96c0,5.867,4.8,10.667,10.667,10.667h96v74.667h21.333v-85.333c0-1.067-0.32-2.133-0.64-3.2 c-0.107-0.32-0.107-0.533-0.213-0.853c-0.533-1.387-1.387-2.56-2.453-3.627L252.907,3.093C250.88,1.173,248.213,0,245.333,0 H10.667C4.8,0,0,4.8,0,10.667v448c0,5.867,4.8,10.667,10.667,10.667H224V448H21.333V21.333z M256,36.48l70.187,70.187H256V36.48z "/>
        <path d="M373.333,234.667c-76.587,0-138.667,62.08-138.667,138.667S296.747,512,373.333,512S512,449.92,512,373.333 C511.893,296.747,449.92,234.773,373.333,234.667z M373.333,490.667C308.48,490.667,256,438.187,256,373.333 S308.48,256,373.333,256s117.333,52.48,117.333,117.333C490.56,438.08,438.08,490.56,373.333,490.667z"/>
        <path d="M412.8,377.173l-28.8,28.8v-90.56c0-5.333-3.84-10.133-9.067-10.88c-6.613-0.96-12.267,4.16-12.267,10.56v90.667 l-28.587-28.587c-4.16-4.16-10.987-4.16-15.253,0c-4.16,4.16-4.16,10.987,0,15.253l46.933,46.933c4.16,4.16,10.987,4.16,15.253,0 l46.933-46.933c4.16-4.267,4.053-11.093-0.213-15.253C423.573,373.12,416.96,373.12,412.8,377.173z"/> </g> </g> </g> </g>

</svg>