<svg width="68" height="68" viewBox="0 0 68 68" fill="none" xmlns="http://www.w3.org/2000/svg">
<circle cx="34" cy="34" r="34" fill="#101F39"/>
<path d="M36.5181 32.3325C37.7743 32.4964 38.853 32.9333 39.7542 33.6434C40.6827 34.3261 41.3928 35.2 41.8843 36.2651C42.4032 37.3301 42.6627 38.5317 42.6627 39.8699C42.6627 41.4811 42.2667 42.9012 41.4747 44.1301C40.71 45.359 39.6313 46.3149 38.2386 46.9976C36.8731 47.6803 35.2892 48.0217 33.4867 48.0217C31.4386 48.0217 29.6361 47.5847 28.0795 46.7108C26.5229 45.8369 25.3896 44.6353 24.6795 43.106L26.1952 41.8771C26.7141 43.1606 27.6016 44.1847 28.8578 44.9494C30.1414 45.7414 31.698 46.1373 33.5277 46.1373C35.6578 46.1373 37.351 45.5775 38.6072 44.4578C39.8908 43.3382 40.5325 41.7815 40.5325 39.788C40.5325 37.7944 39.8771 36.2104 38.5663 35.0361C37.2827 33.8618 35.453 33.2747 33.0771 33.2747H32.094V31.4723H33.159C35.3711 31.4723 37.0643 30.9671 38.2386 29.9566C39.4129 28.9462 40 27.6217 40 25.9831C40 24.7815 39.7133 23.7711 39.1398 22.9518C38.5936 22.1052 37.8289 21.4498 36.8458 20.9855C35.89 20.5213 34.7839 20.2892 33.5277 20.2892C31.9165 20.2892 30.4827 20.6715 29.2265 21.4361C27.9976 22.1735 27.0964 23.1839 26.5229 24.4675L25.1301 23.3205C25.5671 22.3373 26.1952 21.4771 27.0145 20.7398C27.861 20.0024 28.8578 19.4289 30.0048 19.0193C31.1518 18.6096 32.3807 18.4048 33.6916 18.4048C35.3301 18.4048 36.7775 18.7189 38.0337 19.347C39.3173 19.9751 40.3141 20.849 41.0241 21.9687C41.7614 23.061 42.1301 24.3309 42.1301 25.7783C42.1301 26.8707 41.898 27.8948 41.4337 28.8506C40.9968 29.7791 40.355 30.5574 39.5084 31.1855C38.6618 31.7863 37.6651 32.1687 36.5181 32.3325Z" fill="#FBFBFB"/>
</svg>
