<svg width="699" height="107" viewBox="0 0 699 107" fill="none" xmlns="http://www.w3.org/2000/svg">
<path d="M40.0846 97.808L41.9406 102.68C38.1126 105.232 33.2406 106.624 28.4846 106.624C19.9006 106.74 11.8966 101.868 11.8966 89.456V54.308H0.412625V49.668L11.2006 48.392H11.8966V30.644H18.9726V48.392H39.3886V54.308H18.9726V89.456C18.9726 97.46 24.1926 100.244 29.9926 100.244C33.4726 100.244 37.0686 99.2 40.0846 97.808ZM90.0036 45.376C90.5836 45.376 91.0476 45.376 91.5116 45.376L90.3516 52.568C89.7716 52.568 89.1916 52.568 88.6116 52.568C81.3036 52.568 73.2996 55.7 65.7596 63.124V105H58.6836V47H65.7596V56.628C73.6476 48.856 82.1156 45.376 90.0036 45.376ZM153.102 47V105.116H146.026V96.3C139.53 103.608 131.758 106.74 124.682 106.74C110.646 106.74 99.6261 94.328 99.6261 76.116C99.6261 58.136 110.414 45.376 124.798 45.376C131.874 45.376 139.646 48.624 146.026 55.7V47H153.102ZM125.262 99.896C132.106 99.896 139.994 96.3 146.026 89.224V62.892C139.762 55.584 131.874 52.22 125.262 52.22C114.474 52.22 107.05 61.268 107.05 76.116C107.05 90.964 114.59 99.896 125.262 99.896ZM203.128 45.376V45.492C213.8 45.492 222.848 52.568 222.848 67.3V105.116H215.772V67.3C215.772 57.092 209.624 52.104 201.736 52.104C195.356 52.104 187.352 55.352 180.74 61.964V105H173.664V47H180.74V55.7C187.7 48.624 196.052 45.376 203.128 45.376ZM260.746 45.376C268.286 45.376 276.754 47.464 281.974 52.8L278.494 57.788C274.55 53.612 267.59 51.756 260.978 51.756C252.742 51.756 246.246 54.656 246.246 61.732C246.246 67.648 250.654 69.156 262.138 71.94C271.766 74.376 283.83 77.044 283.83 89.34C283.946 101.288 272.462 106.624 261.326 106.624C251.814 106.624 242.302 102.796 237.778 95.952L241.374 91.08C245.086 96.996 253.09 100.476 261.21 100.476C269.678 100.476 276.754 96.532 276.754 89.456C276.754 82.032 269.446 80.64 260.166 78.32C246.014 74.84 239.17 71.708 239.17 62.08C239.17 49.784 250.074 45.376 260.746 45.376ZM326.429 45.376C333.505 45.376 341.393 48.16 348.237 53.264L346.381 58.368C339.769 54.192 332.925 52.22 326.429 52.22C313.437 52.104 304.969 61.964 305.085 76C305.085 89.688 313.437 99.896 326.661 99.896C332.809 99.896 339.885 97.808 346.381 93.864L348.237 98.852C341.741 103.84 333.969 106.624 326.313 106.624C309.261 106.624 297.661 92.936 297.661 76C297.661 58.484 309.377 45.376 326.429 45.376ZM397.675 45.376C398.255 45.376 398.719 45.376 399.183 45.376L398.023 52.568C397.443 52.568 396.863 52.568 396.283 52.568C388.975 52.568 380.971 55.7 373.431 63.124V105H366.355V47H373.431V56.628C381.319 48.856 389.787 45.376 397.675 45.376ZM511.829 105H487.679L480.33 84.3H437.729L430.229 105H406.229L447.179 -7.15256e-06H470.879L511.829 105ZM444.029 65.85H473.879L459.029 24.45L444.029 65.85ZM550.215 105H527.865V-7.15256e-06H550.215V105ZM601.856 45.376C616.24 45.376 627.028 58.136 627.028 76C627.028 94.096 616.24 106.624 601.856 106.624C594.316 106.624 586.66 103.144 580.512 96.184V105H573.436V23.8H580.512V55.816C586.66 48.972 594.316 45.376 601.856 45.376ZM601.392 99.896C611.948 99.896 619.604 90.848 619.604 76C619.604 61.5 612.18 52.22 601.392 52.22C594.896 52.22 586.892 55.468 580.512 63.008V89.108C586.892 96.532 594.78 99.896 601.392 99.896ZM671.572 45.376C689.552 45.376 698.368 58.716 698.6 75.304C698.6 76 698.6 76.696 698.6 77.276H651.156C651.156 77.74 651.156 78.088 651.156 78.436C651.968 90.848 659.856 99.896 671.804 99.896C678.184 99.896 684.912 97.924 691.408 93.864L693.496 98.736C686.652 103.956 678.648 106.624 671.572 106.624C654.752 106.624 643.616 92.936 643.616 76C643.616 58.948 654.752 45.26 671.572 45.376ZM671.804 52.22C660.552 52.104 652.896 60.224 651.388 71.476H691.06C689.9 60.108 683.752 52.22 671.804 52.22Z" fill="url(#paint0_linear_81_9)"/>
<defs>
<linearGradient id="paint0_linear_81_9" x1="345" y1="0" x2="345" y2="105" gradientUnits="userSpaceOnUse">
<stop stop-color="#101F39"/>
<stop offset="1" stop-color="#101F39" stop-opacity="0.52"/>
</linearGradient>
</defs>
</svg>
